<svg xmlns="http://www.w3.org/2000/svg" width="512.002" height="512.002" viewBox="0 0 512.002 512.002">
  <g id="pizza" transform="translate(0 0)">
    <g id="Grupo_1" data-name="Grupo 1">
      <path id="Caminho_1" data-name="Caminho 1" d="M448.235,202.366a7.494,7.494,0,0,0-5.726-.407l-198.7,66.232,66.233-198.7a7.5,7.5,0,0,0-4.744-9.488A231.975,231.975,0,1,0,452,206.7a7.5,7.5,0,0,0-3.761-4.337ZM385.36,433.458A216.952,216.952,0,0,1,78.543,126.642,216.921,216.921,0,0,1,293.4,71.987L288,88.19a199.5,199.5,0,0,0-56.047-8.027c-110.218,0-199.887,89.669-199.887,199.887s89.669,199.887,199.887,199.887a199.059,199.059,0,0,0,156.044-74.956,7.5,7.5,0,0,0-11.7-9.381,184.13,184.13,0,0,1-144.34,69.337C130,464.937,47.064,382,47.064,280.05S130,95.163,231.951,95.163a184.505,184.505,0,0,1,51.3,7.264L224.836,277.678a7.5,7.5,0,0,0,9.487,9.487l175.251-58.417A185.035,185.035,0,0,1,393.733,369.62a7.5,7.5,0,1,0,13.116,7.277A199.988,199.988,0,0,0,423.81,224l16.2-5.4A216.928,216.928,0,0,1,385.36,433.458Z" fill="#fff"/>
    </g>
    <g id="Grupo_2" data-name="Grupo 2">
      <path id="Caminho_2" data-name="Caminho 2" d="M511.615,147.084A233,233,0,0,0,364.918.386a7.5,7.5,0,0,0-9.486,4.744L284.456,218.059a7.5,7.5,0,0,0,9.487,9.487L476.452,166.71h0l30.416-10.139a7.5,7.5,0,0,0,4.743-9.486Zm-32.923,3.067a199.061,199.061,0,0,0-68.209-90.338,7.5,7.5,0,1,0-8.933,12.049,184.149,184.149,0,0,1,62.9,83.037L303.43,208.572l53.668-161c5.386,2.044,10.7,4.33,15.856,6.863a7.5,7.5,0,1,0,6.612-13.463c-5.759-2.829-11.7-5.388-17.718-7.652l5.4-16.2a218.091,218.091,0,0,1,127.639,127.64Z" fill="#fff"/>
    </g>
    <g id="Grupo_3" data-name="Grupo 3">
      <path id="Caminho_3" data-name="Caminho 3" d="M191.355,199.889a39.689,39.689,0,0,0-1.248-9.89,7.5,7.5,0,0,0-14.527,3.741A24.53,24.53,0,1,1,157.953,176.1a7.5,7.5,0,1,0,3.748-14.524,39.569,39.569,0,1,0,29.654,38.312Z" fill="#fff"/>
    </g>
    <g id="Grupo_4" data-name="Grupo 4">
      <path id="Caminho_4" data-name="Caminho 4" d="M376.758,135.76a23.532,23.532,0,1,0,23.532-23.532A23.559,23.559,0,0,0,376.758,135.76Zm23.533-8.533a8.532,8.532,0,1,1-8.532,8.532,8.542,8.542,0,0,1,8.532-8.532Z" fill="#fff"/>
    </g>
    <g id="Grupo_5" data-name="Grupo 5">
      <path id="Caminho_5" data-name="Caminho 5" d="M280.048,344.7A31.549,31.549,0,1,0,311.6,376.244,31.584,31.584,0,0,0,280.048,344.7Zm0,48.1A16.549,16.549,0,1,1,296.6,376.244,16.566,16.566,0,0,1,280.048,392.792Z" fill="#fff"/>
    </g>
    <g id="Grupo_6" data-name="Grupo 6">
      <path id="Caminho_6" data-name="Caminho 6" d="M159.807,304.614a31.549,31.549,0,1,0,31.548,31.548A31.584,31.584,0,0,0,159.807,304.614Zm0,48.1a16.549,16.549,0,1,1,16.548-16.549A16.567,16.567,0,0,1,159.807,352.712Z" fill="#fff"/>
    </g>
    <g id="Grupo_7" data-name="Grupo 7">
      <path id="Caminho_7" data-name="Caminho 7" d="M375.726,296.082a23.532,23.532,0,1,0-23.532,23.532A23.559,23.559,0,0,0,375.726,296.082Zm-23.533,8.532a8.532,8.532,0,1,1,8.532-8.532A8.542,8.542,0,0,1,352.193,304.614Z" fill="#fff"/>
    </g>
    <g id="Grupo_8" data-name="Grupo 8">
      <path id="Caminho_8" data-name="Caminho 8" d="M207.9,392.792a23.532,23.532,0,1,0,23.532,23.532A23.559,23.559,0,0,0,207.9,392.792Zm0,32.064a8.532,8.532,0,1,1,8.532-8.532A8.541,8.541,0,0,1,207.9,424.856Z" fill="#fff"/>
    </g>
    <g id="Grupo_9" data-name="Grupo 9">
      <path id="Caminho_9" data-name="Caminho 9" d="M355.547,137.068a7.5,7.5,0,0,0-10.062,3.354l-8.016,16.032a7.5,7.5,0,1,0,13.416,6.708L358.9,147.13a7.5,7.5,0,0,0-3.354-10.062Z" fill="#fff"/>
    </g>
    <g id="Grupo_10" data-name="Grupo 10">
      <path id="Caminho_10" data-name="Caminho 10" d="M381.545,82.36l-8.016-8.017a7.5,7.5,0,1,0-10.606,10.606l8.016,8.017A7.5,7.5,0,0,0,381.545,82.36Z" fill="#fff"/>
    </g>
    <g id="Grupo_11" data-name="Grupo 11">
      <path id="Caminho_11" data-name="Caminho 11" d="M196.533,142.468l16.032,8.016a7.5,7.5,0,0,0,6.708-13.417l-16.032-8.016a7.5,7.5,0,0,0-6.708,13.417Z" fill="#fff"/>
    </g>
    <g id="Grupo_12" data-name="Grupo 12">
      <path id="Caminho_12" data-name="Caminho 12" d="M247.984,143.26a7.5,7.5,0,0,0,7.5-7.5v-8.016a7.5,7.5,0,0,0-15,0v8.016A7.5,7.5,0,0,0,247.984,143.26Z" fill="#fff"/>
    </g>
    <g id="Grupo_13" data-name="Grupo 13">
      <path id="Caminho_13" data-name="Caminho 13" d="M76.291,254.694l16.032,8.016a7.5,7.5,0,1,0,6.708-13.416L83,241.277a7.5,7.5,0,0,0-6.708,13.417Z" fill="#fff"/>
    </g>
    <g id="Grupo_14" data-name="Grupo 14">
      <path id="Caminho_14" data-name="Caminho 14" d="M128.258,272.034v8.016a7.5,7.5,0,0,0,15,0v-8.016a7.5,7.5,0,0,0-15,0Z" fill="#fff"/>
    </g>
    <g id="Grupo_15" data-name="Grupo 15">
      <path id="Caminho_15" data-name="Caminho 15" d="M216.436,199.889v8.016a7.5,7.5,0,0,0,15,0v-8.016a7.5,7.5,0,0,0-15,0Z" fill="#fff"/>
    </g>
    <g id="Grupo_16" data-name="Grupo 16">
      <path id="Caminho_16" data-name="Caminho 16" d="M181.142,258.715a7.5,7.5,0,1,0-10.606,10.606l8.016,8.016a7.5,7.5,0,0,0,10.606-10.606Z" fill="#fff"/>
    </g>
    <g id="Grupo_17" data-name="Grupo 17">
      <path id="Caminho_17" data-name="Caminho 17" d="M92.964,298.8a7.5,7.5,0,0,0-10.606,0l-8.016,8.016a7.5,7.5,0,1,0,10.606,10.606l8.016-8.016A7.5,7.5,0,0,0,92.964,298.8Z" fill="#fff"/>
    </g>
    <g id="Grupo_18" data-name="Grupo 18">
      <path id="Caminho_18" data-name="Caminho 18" d="M103.693,344.7H95.677a7.5,7.5,0,0,0,0,15h8.016a7.5,7.5,0,0,0,0-15Z" fill="#fff"/>
    </g>
    <g id="Grupo_19" data-name="Grupo 19">
      <path id="Caminho_19" data-name="Caminho 19" d="M234.665,314.828l-8.016,8.016a7.5,7.5,0,1,0,10.606,10.606l8.016-8.016a7.5,7.5,0,0,0-10.606-10.606Z" fill="#fff"/>
    </g>
    <g id="Grupo_20" data-name="Grupo 20">
      <path id="Caminho_20" data-name="Caminho 20" d="M207.9,360.727a7.5,7.5,0,1,0,0,15h8.016a7.5,7.5,0,0,0,0-15Z" fill="#fff"/>
    </g>
    <g id="Grupo_21" data-name="Grupo 21">
      <path id="Caminho_21" data-name="Caminho 21" d="M151.791,392.792a7.5,7.5,0,0,0-7.5,7.5v8.017a7.5,7.5,0,0,0,15,0v-8.017A7.5,7.5,0,0,0,151.791,392.792Z" fill="#fff"/>
    </g>
    <g id="Grupo_22" data-name="Grupo 22">
      <path id="Caminho_22" data-name="Caminho 22" d="M272.032,424.856h-8.016a7.5,7.5,0,0,0,0,15h8.016a7.5,7.5,0,0,0,0-15Z" fill="#fff"/>
    </g>
    <g id="Grupo_23" data-name="Grupo 23">
      <path id="Caminho_23" data-name="Caminho 23" d="M296.081,327.631a7.5,7.5,0,0,0,7.5-7.5V304.1a7.5,7.5,0,0,0-15,0v16.032A7.5,7.5,0,0,0,296.081,327.631Z" fill="#fff"/>
    </g>
    <g id="Grupo_24" data-name="Grupo 24">
      <path id="Caminho_24" data-name="Caminho 24" d="M349.48,354.908a7.5,7.5,0,1,0-10.606,10.606l8.016,8.017A7.5,7.5,0,0,0,357.5,362.925Z" fill="#fff"/>
    </g>
    <g id="Grupo_25" data-name="Grupo 25">
      <path id="Caminho_25" data-name="Caminho 25" d="M384.258,328.663h-8.017a7.5,7.5,0,0,0,0,15h8.017a7.5,7.5,0,0,0,0-15Z" fill="#fff"/>
    </g>
    <g id="Grupo_26" data-name="Grupo 26">
      <path id="Caminho_26" data-name="Caminho 26" d="M399.774,272.034v-8.016a7.5,7.5,0,0,0-15,0v8.016a7.5,7.5,0,0,0,15,0Z" fill="#fff"/>
    </g>
  </g>
</svg>
